<svg xmlns="http://www.w3.org/2000/svg" viewBox="0 0 936 486" width="936" height="486" role="img" aria-label="Instrumental">
  <title>Instrumental</title>
  <defs>
    <linearGradient id="fundo" x1="0" y1="0" x2="1" y2="1">
      <stop offset="0%" stop-color="#08090F"/>
      <stop offset="100%" stop-color="#0C0D16"/>
    </linearGradient>
    <pattern id="scan" width="3" height="3" patternUnits="userSpaceOnUse">
      <rect width="3" height="1.2" fill="#000" opacity=".20"/>
    </pattern>
  </defs>
  <rect width="936" height="486" rx="10" fill="url(#fundo)"/>
  <text x="32.0" y="47.0" font-family="ui-monospace, SFMono-Regular, Menlo, Consolas, monospace" font-size="19" fill="#00a0ac" letter-spacing="2" opacity=".95">WEB</text>
  <rect x="88" y="41" width="816" height="2" fill="#00a0ac" opacity=".22"/>
  <rect x="32.0" y="68" width="149.2" height="48" rx="8" fill="#00a0ac" opacity=".12"/>
  <rect x="32.0" y="68" width="149.2" height="48" rx="8" fill="none" stroke="#00a0ac" stroke-width="1.5" opacity=".55"/>
  <text x="106.6" y="101.4" font-family="ui-monospace, SFMono-Regular, Menlo, Consolas, monospace" font-size="26" fill="#E6EEF9" text-anchor="middle">Next.js</text>
  <rect x="193.2" y="68" width="118.0" height="48" rx="8" fill="#00a0ac" opacity=".12"/>
  <rect x="193.2" y="68" width="118.0" height="48" rx="8" fill="none" stroke="#00a0ac" stroke-width="1.5" opacity=".55"/>
  <text x="252.2" y="101.4" font-family="ui-monospace, SFMono-Regular, Menlo, Consolas, monospace" font-size="26" fill="#E6EEF9" text-anchor="middle">React</text>
  <rect x="323.2" y="68" width="196.0" height="48" rx="8" fill="#00a0ac" opacity=".12"/>
  <rect x="323.2" y="68" width="196.0" height="48" rx="8" fill="none" stroke="#00a0ac" stroke-width="1.5" opacity=".55"/>
  <text x="421.2" y="101.4" font-family="ui-monospace, SFMono-Regular, Menlo, Consolas, monospace" font-size="26" fill="#E6EEF9" text-anchor="middle">TypeScript</text>
  <rect x="531.2" y="68" width="196.0" height="48" rx="8" fill="#00a0ac" opacity=".12"/>
  <rect x="531.2" y="68" width="196.0" height="48" rx="8" fill="none" stroke="#00a0ac" stroke-width="1.5" opacity=".55"/>
  <text x="629.2" y="101.4" font-family="ui-monospace, SFMono-Regular, Menlo, Consolas, monospace" font-size="26" fill="#E6EEF9" text-anchor="middle">JavaScript</text>
  <rect x="739.2" y="68" width="164.8" height="48" rx="8" fill="#00a0ac" opacity=".12"/>
  <rect x="739.2" y="68" width="164.8" height="48" rx="8" fill="none" stroke="#00a0ac" stroke-width="1.5" opacity=".55"/>
  <text x="821.6" y="101.4" font-family="ui-monospace, SFMono-Regular, Menlo, Consolas, monospace" font-size="26" fill="#E6EEF9" text-anchor="middle">HTML/CSS</text>
  <text x="32.0" y="161.0" font-family="ui-monospace, SFMono-Regular, Menlo, Consolas, monospace" font-size="19" fill="#b350ff" letter-spacing="2" opacity=".95">3D &amp; MOTION</text>
  <rect x="195" y="155" width="709" height="2" fill="#b350ff" opacity=".22"/>
  <rect x="32.0" y="182" width="164.8" height="48" rx="8" fill="#b350ff" opacity=".12"/>
  <rect x="32.0" y="182" width="164.8" height="48" rx="8" fill="none" stroke="#b350ff" stroke-width="1.5" opacity=".55"/>
  <text x="114.4" y="215.4" font-family="ui-monospace, SFMono-Regular, Menlo, Consolas, monospace" font-size="26" fill="#E6EEF9" text-anchor="middle">Three.js</text>
  <rect x="208.8" y="182" width="133.6" height="48" rx="8" fill="#b350ff" opacity=".12"/>
  <rect x="208.8" y="182" width="133.6" height="48" rx="8" fill="none" stroke="#b350ff" stroke-width="1.5" opacity=".55"/>
  <text x="275.6" y="215.4" font-family="ui-monospace, SFMono-Regular, Menlo, Consolas, monospace" font-size="26" fill="#E6EEF9" text-anchor="middle">Canvas</text>
  <rect x="354.4" y="182" width="86.8" height="48" rx="8" fill="#b350ff" opacity=".12"/>
  <rect x="354.4" y="182" width="86.8" height="48" rx="8" fill="none" stroke="#b350ff" stroke-width="1.5" opacity=".55"/>
  <text x="397.8" y="215.4" font-family="ui-monospace, SFMono-Regular, Menlo, Consolas, monospace" font-size="26" fill="#E6EEF9" text-anchor="middle">SVG</text>
  <rect x="453.2" y="182" width="258.4" height="48" rx="8" fill="#b350ff" opacity=".12"/>
  <rect x="453.2" y="182" width="258.4" height="48" rx="8" fill="none" stroke="#b350ff" stroke-width="1.5" opacity=".55"/>
  <text x="582.4" y="215.4" font-family="ui-monospace, SFMono-Regular, Menlo, Consolas, monospace" font-size="26" fill="#E6EEF9" text-anchor="middle">CSS Animations</text>
  <text x="32.0" y="275.0" font-family="ui-monospace, SFMono-Regular, Menlo, Consolas, monospace" font-size="19" fill="#c08a00" letter-spacing="2" opacity=".95">VÍDEO</text>
  <rect x="115" y="269" width="789" height="2" fill="#c08a00" opacity=".22"/>
  <rect x="32.0" y="296" width="274.0" height="48" rx="8" fill="#c08a00" opacity=".12"/>
  <rect x="32.0" y="296" width="274.0" height="48" rx="8" fill="none" stroke="#c08a00" stroke-width="1.5" opacity=".55"/>
  <text x="169.0" y="329.4" font-family="ui-monospace, SFMono-Regular, Menlo, Consolas, monospace" font-size="26" fill="#E6EEF9" text-anchor="middle">DaVinci Resolve</text>
  <rect x="318.0" y="296" width="133.6" height="48" rx="8" fill="#c08a00" opacity=".12"/>
  <rect x="318.0" y="296" width="133.6" height="48" rx="8" fill="none" stroke="#c08a00" stroke-width="1.5" opacity=".55"/>
  <text x="384.8" y="329.4" font-family="ui-monospace, SFMono-Regular, Menlo, Consolas, monospace" font-size="26" fill="#E6EEF9" text-anchor="middle">FFmpeg</text>
  <rect x="463.6" y="296" width="149.2" height="48" rx="8" fill="#c08a00" opacity=".12"/>
  <rect x="463.6" y="296" width="149.2" height="48" rx="8" fill="none" stroke="#c08a00" stroke-width="1.5" opacity=".55"/>
  <text x="538.2" y="329.4" font-family="ui-monospace, SFMono-Regular, Menlo, Consolas, monospace" font-size="26" fill="#E6EEF9" text-anchor="middle">Whisper</text>
  <rect x="624.8" y="296" width="196.0" height="48" rx="8" fill="#c08a00" opacity=".12"/>
  <rect x="624.8" y="296" width="196.0" height="48" rx="8" fill="none" stroke="#c08a00" stroke-width="1.5" opacity=".55"/>
  <text x="722.8" y="329.4" font-family="ui-monospace, SFMono-Regular, Menlo, Consolas, monospace" font-size="26" fill="#E6EEF9" text-anchor="middle">Legendagem</text>
  <text x="32.0" y="389.0" font-family="ui-monospace, SFMono-Regular, Menlo, Consolas, monospace" font-size="19" fill="#f51f8f" letter-spacing="2" opacity=".95">IA &amp; AUTOMAÇÃO</text>
  <rect x="236" y="383" width="668" height="2" fill="#f51f8f" opacity=".22"/>
  <rect x="32.0" y="410" width="133.6" height="48" rx="8" fill="#f51f8f" opacity=".12"/>
  <rect x="32.0" y="410" width="133.6" height="48" rx="8" fill="none" stroke="#f51f8f" stroke-width="1.5" opacity=".55"/>
  <text x="98.8" y="443.4" font-family="ui-monospace, SFMono-Regular, Menlo, Consolas, monospace" font-size="26" fill="#E6EEF9" text-anchor="middle">Claude</text>
  <rect x="177.6" y="410" width="211.6" height="48" rx="8" fill="#f51f8f" opacity=".12"/>
  <rect x="177.6" y="410" width="211.6" height="48" rx="8" fill="none" stroke="#f51f8f" stroke-width="1.5" opacity=".55"/>
  <text x="283.4" y="443.4" font-family="ui-monospace, SFMono-Regular, Menlo, Consolas, monospace" font-size="26" fill="#E6EEF9" text-anchor="middle">APIs de LLM</text>
  <rect x="401.2" y="410" width="133.6" height="48" rx="8" fill="#f51f8f" opacity=".12"/>
  <rect x="401.2" y="410" width="133.6" height="48" rx="8" fill="none" stroke="#f51f8f" stroke-width="1.5" opacity=".55"/>
  <text x="468.0" y="443.4" font-family="ui-monospace, SFMono-Regular, Menlo, Consolas, monospace" font-size="26" fill="#E6EEF9" text-anchor="middle">Python</text>
  <rect x="546.8" y="410" width="149.2" height="48" rx="8" fill="#f51f8f" opacity=".12"/>
  <rect x="546.8" y="410" width="149.2" height="48" rx="8" fill="none" stroke="#f51f8f" stroke-width="1.5" opacity=".55"/>
  <text x="621.4" y="443.4" font-family="ui-monospace, SFMono-Regular, Menlo, Consolas, monospace" font-size="26" fill="#E6EEF9" text-anchor="middle">Node.js</text>
  <rect width="936" height="486" rx="10" fill="url(#scan)"/>
  <rect x="1" y="1" width="934" height="484" rx="10" fill="none" stroke="#1B2338" stroke-width="2"/>
</svg>
